<mxfile host="app.diagrams.net" modified="2021-06-25T08:43:40.120Z" agent="5.0 (Windows NT 10.0; Win64; x64) AppleWebKit/537.36 (KHTML, like Gecko) Chrome/91.0.4472.77 Safari/537.36 Edg/91.0.864.41" etag="g9EmVuMK7UL9G9xs-fWS" version="14.8.1" type="github">
  <diagram id="b1v0rlvgwMFWRnTb7KpD" name="Page-1">
    <mxGraphModel dx="1422" dy="804" grid="1" gridSize="10" guides="1" tooltips="1" connect="1" arrows="1" fold="1" page="1" pageScale="1" pageWidth="850" pageHeight="1100" math="0" shadow="0">
      <root>
        <mxCell id="0" />
        <mxCell id="1" parent="0" />
        <mxCell id="MEOmbgYRBJoREZ-vEdDK-10" style="edgeStyle=orthogonalEdgeStyle;rounded=0;orthogonalLoop=1;jettySize=auto;html=1;" edge="1" parent="1" source="MEOmbgYRBJoREZ-vEdDK-2" target="MEOmbgYRBJoREZ-vEdDK-7">
          <mxGeometry relative="1" as="geometry">
            <mxPoint x="310" y="540" as="targetPoint" />
          </mxGeometry>
        </mxCell>
        <mxCell id="MEOmbgYRBJoREZ-vEdDK-2" value="" style="pointerEvents=1;shadow=0;dashed=0;html=1;strokeColor=none;fillColor=#505050;labelPosition=center;verticalLabelPosition=bottom;verticalAlign=top;outlineConnect=0;align=center;shape=mxgraph.office.servers.exchange_mailbox_server;" vertex="1" parent="1">
          <mxGeometry x="397" y="486.5" width="57" height="59" as="geometry" />
        </mxCell>
        <mxCell id="MEOmbgYRBJoREZ-vEdDK-3" value="" style="pointerEvents=1;shadow=0;dashed=0;html=1;strokeColor=none;fillColor=#505050;labelPosition=center;verticalLabelPosition=bottom;outlineConnect=0;verticalAlign=top;align=center;shape=mxgraph.office.clouds.cloud_exchange_online;" vertex="1" parent="1">
          <mxGeometry x="640" y="40" width="120" height="80" as="geometry" />
        </mxCell>
        <mxCell id="MEOmbgYRBJoREZ-vEdDK-5" style="edgeStyle=orthogonalEdgeStyle;rounded=0;orthogonalLoop=1;jettySize=auto;html=1;" edge="1" parent="1" source="MEOmbgYRBJoREZ-vEdDK-4">
          <mxGeometry relative="1" as="geometry">
            <mxPoint x="770" y="350" as="targetPoint" />
          </mxGeometry>
        </mxCell>
        <mxCell id="MEOmbgYRBJoREZ-vEdDK-6" style="edgeStyle=orthogonalEdgeStyle;rounded=0;orthogonalLoop=1;jettySize=auto;html=1;" edge="1" parent="1" source="MEOmbgYRBJoREZ-vEdDK-4">
          <mxGeometry relative="1" as="geometry">
            <mxPoint x="70" y="350" as="targetPoint" />
          </mxGeometry>
        </mxCell>
        <mxCell id="MEOmbgYRBJoREZ-vEdDK-17" style="edgeStyle=orthogonalEdgeStyle;rounded=0;orthogonalLoop=1;jettySize=auto;html=1;strokeWidth=2;" edge="1" parent="1" source="MEOmbgYRBJoREZ-vEdDK-4">
          <mxGeometry relative="1" as="geometry">
            <mxPoint x="249" y="270" as="targetPoint" />
          </mxGeometry>
        </mxCell>
        <mxCell id="MEOmbgYRBJoREZ-vEdDK-4" value="" style="image;html=1;image=img/lib/clip_art/networking/Firewall_02_128x128.png" vertex="1" parent="1">
          <mxGeometry x="208.5" y="310" width="80" height="80" as="geometry" />
        </mxCell>
        <mxCell id="MEOmbgYRBJoREZ-vEdDK-11" style="edgeStyle=orthogonalEdgeStyle;rounded=0;orthogonalLoop=1;jettySize=auto;html=1;entryX=0.5;entryY=1;entryDx=0;entryDy=0;" edge="1" parent="1" source="MEOmbgYRBJoREZ-vEdDK-7" target="MEOmbgYRBJoREZ-vEdDK-4">
          <mxGeometry relative="1" as="geometry" />
        </mxCell>
        <mxCell id="MEOmbgYRBJoREZ-vEdDK-7" value="" style="verticalLabelPosition=bottom;aspect=fixed;html=1;verticalAlign=top;strokeColor=none;align=center;outlineConnect=0;shape=mxgraph.citrix.smtp_server;" vertex="1" parent="1">
          <mxGeometry x="210.5" y="470" width="76" height="92" as="geometry" />
        </mxCell>
        <mxCell id="MEOmbgYRBJoREZ-vEdDK-8" value="" style="verticalLabelPosition=bottom;aspect=fixed;html=1;verticalAlign=top;strokeColor=none;align=center;outlineConnect=0;shape=mxgraph.citrix.laptop_2;" vertex="1" parent="1">
          <mxGeometry x="655" y="486.5" width="116" height="86.5" as="geometry" />
        </mxCell>
        <mxCell id="MEOmbgYRBJoREZ-vEdDK-9" value="" style="endArrow=classic;html=1;" edge="1" parent="1" source="MEOmbgYRBJoREZ-vEdDK-8" target="MEOmbgYRBJoREZ-vEdDK-2">
          <mxGeometry width="50" height="50" relative="1" as="geometry">
            <mxPoint x="680" y="530" as="sourcePoint" />
            <mxPoint x="500" y="470" as="targetPoint" />
          </mxGeometry>
        </mxCell>
        <mxCell id="MEOmbgYRBJoREZ-vEdDK-12" value="&lt;b&gt;&lt;font style=&quot;font-size: 13px&quot;&gt;Mailbox@knauf.com&lt;/font&gt;&lt;/b&gt;" style="text;html=1;align=center;verticalAlign=middle;resizable=0;points=[];autosize=1;strokeColor=#82b366;fillColor=#d5e8d4;" vertex="1" parent="1">
          <mxGeometry x="655" y="573" width="140" height="20" as="geometry" />
        </mxCell>
        <mxCell id="MEOmbgYRBJoREZ-vEdDK-13" value="&lt;b&gt;&lt;font style=&quot;font-size: 13px&quot;&gt;Knauf&amp;nbsp; Exchange&lt;/font&gt;&lt;/b&gt;" style="text;html=1;align=center;verticalAlign=middle;resizable=0;points=[];autosize=1;strokeColor=#82b366;fillColor=#d5e8d4;" vertex="1" parent="1">
          <mxGeometry x="365" y="550" width="120" height="20" as="geometry" />
        </mxCell>
        <mxCell id="MEOmbgYRBJoREZ-vEdDK-14" value="&lt;b&gt;Fortimail address re-write&lt;/b&gt;" style="text;html=1;align=center;verticalAlign=middle;resizable=0;points=[];autosize=1;strokeColor=#82b366;fillColor=#d5e8d4;" vertex="1" parent="1">
          <mxGeometry x="40" y="506" width="160" height="20" as="geometry" />
        </mxCell>
        <mxCell id="MEOmbgYRBJoREZ-vEdDK-15" value="&lt;b&gt;&lt;font style=&quot;font-size: 13px&quot;&gt;Mailbox@usgboral.com&lt;/font&gt;&lt;/b&gt;" style="text;html=1;align=center;verticalAlign=middle;resizable=0;points=[];autosize=1;strokeColor=#82b366;fillColor=#d5e8d4;" vertex="1" parent="1">
          <mxGeometry x="80" y="420" width="160" height="20" as="geometry" />
        </mxCell>
        <mxCell id="MEOmbgYRBJoREZ-vEdDK-20" style="edgeStyle=orthogonalEdgeStyle;rounded=0;orthogonalLoop=1;jettySize=auto;html=1;strokeWidth=2;" edge="1" parent="1" source="MEOmbgYRBJoREZ-vEdDK-16" target="MEOmbgYRBJoREZ-vEdDK-19">
          <mxGeometry relative="1" as="geometry" />
        </mxCell>
        <mxCell id="MEOmbgYRBJoREZ-vEdDK-16" value="" style="aspect=fixed;perimeter=ellipsePerimeter;html=1;align=center;shadow=0;dashed=0;spacingTop=3;image;image=img/lib/active_directory/internet_cloud.svg;" vertex="1" parent="1">
          <mxGeometry x="170.25" y="170" width="156.5" height="98.6" as="geometry" />
        </mxCell>
        <mxCell id="MEOmbgYRBJoREZ-vEdDK-18" value="&lt;b&gt;&lt;font style=&quot;font-size: 14px&quot;&gt;Internet&lt;br&gt;&lt;/font&gt;&lt;/b&gt;" style="text;html=1;align=center;verticalAlign=middle;resizable=0;points=[];autosize=1;strokeColor=none;" vertex="1" parent="1">
          <mxGeometry x="208.5" y="180" width="70" height="20" as="geometry" />
        </mxCell>
        <mxCell id="MEOmbgYRBJoREZ-vEdDK-21" style="edgeStyle=orthogonalEdgeStyle;rounded=0;orthogonalLoop=1;jettySize=auto;html=1;strokeWidth=2;" edge="1" parent="1" source="MEOmbgYRBJoREZ-vEdDK-19" target="MEOmbgYRBJoREZ-vEdDK-3">
          <mxGeometry relative="1" as="geometry" />
        </mxCell>
        <mxCell id="MEOmbgYRBJoREZ-vEdDK-19" value="" style="dashed=0;outlineConnect=0;html=1;align=center;labelPosition=center;verticalLabelPosition=bottom;verticalAlign=top;shape=mxgraph.weblogos.gmail" vertex="1" parent="1">
          <mxGeometry x="40" y="30" width="64.8" height="46.800000000000004" as="geometry" />
        </mxCell>
        <mxCell id="MEOmbgYRBJoREZ-vEdDK-22" value="Delivering to test recipient" style="text;html=1;align=center;verticalAlign=middle;resizable=0;points=[];autosize=1;strokeColor=none;" vertex="1" parent="1">
          <mxGeometry x="10" y="110" width="150" height="20" as="geometry" />
        </mxCell>
        <mxCell id="MEOmbgYRBJoREZ-vEdDK-23" value="&lt;b&gt;&lt;font style=&quot;font-size: 13px&quot;&gt;Test recipient replying to received email&lt;br&gt;&lt;/font&gt;&lt;/b&gt;" style="text;html=1;align=center;verticalAlign=middle;resizable=0;points=[];autosize=1;strokeColor=#d79b00;fillColor=#ffe6cc;" vertex="1" parent="1">
          <mxGeometry x="99.8" y="30" width="260" height="20" as="geometry" />
        </mxCell>
        <mxCell id="MEOmbgYRBJoREZ-vEdDK-24" value="&lt;b style=&quot;font-size: 15px&quot;&gt;USG Boral &lt;br&gt;O365&lt;/b&gt;" style="text;html=1;align=center;verticalAlign=middle;resizable=0;points=[];autosize=1;strokeColor=#b85450;fillColor=#f8cecc;" vertex="1" parent="1">
          <mxGeometry x="655" y="120" width="90" height="40" as="geometry" />
        </mxCell>
        <mxCell id="MEOmbgYRBJoREZ-vEdDK-26" style="edgeStyle=orthogonalEdgeStyle;rounded=0;orthogonalLoop=1;jettySize=auto;html=1;strokeWidth=2;entryX=1;entryY=0.5;entryDx=0;entryDy=0;" edge="1" parent="1" source="MEOmbgYRBJoREZ-vEdDK-25" target="MEOmbgYRBJoREZ-vEdDK-16">
          <mxGeometry relative="1" as="geometry">
            <mxPoint x="560" y="240" as="targetPoint" />
          </mxGeometry>
        </mxCell>
        <mxCell id="MEOmbgYRBJoREZ-vEdDK-25" value="Redirection to &lt;br&gt;@Knauf.com" style="text;html=1;align=center;verticalAlign=middle;resizable=0;points=[];autosize=1;strokeColor=#d6b656;fillColor=#fff2cc;" vertex="1" parent="1">
          <mxGeometry x="655" y="170" width="90" height="30" as="geometry" />
        </mxCell>
        <mxCell id="MEOmbgYRBJoREZ-vEdDK-27" value="" style="curved=1;endArrow=classic;html=1;strokeWidth=2;" edge="1" parent="1">
          <mxGeometry width="50" height="50" relative="1" as="geometry">
            <mxPoint x="320" y="240" as="sourcePoint" />
            <mxPoint x="640" y="500" as="targetPoint" />
            <Array as="points">
              <mxPoint x="320" y="310" />
              <mxPoint x="270" y="480" />
            </Array>
          </mxGeometry>
        </mxCell>
        <mxCell id="MEOmbgYRBJoREZ-vEdDK-29" value="" style="html=1;verticalLabelPosition=bottom;align=center;labelBackgroundColor=#ffffff;verticalAlign=top;strokeWidth=2;strokeColor=#0080F0;shadow=0;dashed=0;shape=mxgraph.ios7.icons.mail;" vertex="1" parent="1">
          <mxGeometry x="296.75" y="400" width="30" height="16.5" as="geometry" />
        </mxCell>
        <mxCell id="MEOmbgYRBJoREZ-vEdDK-30" value="" style="html=1;verticalLabelPosition=bottom;align=center;labelBackgroundColor=#ffffff;verticalAlign=top;strokeWidth=2;strokeColor=#0080F0;shadow=0;dashed=0;shape=mxgraph.ios7.icons.mail;" vertex="1" parent="1">
          <mxGeometry x="80" y="190" width="30" height="16.5" as="geometry" />
        </mxCell>
        <mxCell id="MEOmbgYRBJoREZ-vEdDK-31" value="" style="html=1;verticalLabelPosition=bottom;align=center;labelBackgroundColor=#ffffff;verticalAlign=top;strokeWidth=2;strokeColor=#0080F0;shadow=0;dashed=0;shape=mxgraph.ios7.icons.mail;" vertex="1" parent="1">
          <mxGeometry x="380" y="61" width="30" height="16.5" as="geometry" />
        </mxCell>
        <mxCell id="MEOmbgYRBJoREZ-vEdDK-32" value="" style="html=1;verticalLabelPosition=bottom;align=center;labelBackgroundColor=#ffffff;verticalAlign=top;strokeWidth=2;strokeColor=#0080F0;shadow=0;dashed=0;shape=mxgraph.ios7.icons.mail;" vertex="1" parent="1">
          <mxGeometry x="455" y="191" width="30" height="16.5" as="geometry" />
        </mxCell>
        <mxCell id="MEOmbgYRBJoREZ-vEdDK-33" value="" style="html=1;verticalLabelPosition=bottom;align=center;labelBackgroundColor=#ffffff;verticalAlign=top;strokeWidth=2;strokeColor=#0080F0;shadow=0;dashed=0;shape=mxgraph.ios7.icons.mail;" vertex="1" parent="1">
          <mxGeometry x="600" y="534" width="30" height="16.5" as="geometry" />
        </mxCell>
      </root>
    </mxGraphModel>
  </diagram>
</mxfile>
